<?xml version="1.0" encoding="utf-8"?>
<!-- Generator: Adobe Illustrator 25.2.1, SVG Export Plug-In . SVG Version: 6.00 Build 0)  -->
<svg version="1.1" id="Layer_1" xmlns="http://www.w3.org/2000/svg" xmlns:xlink="http://www.w3.org/1999/xlink" x="0px" y="0px"
	 viewBox="0 0 612 19.56" style="enable-background:new 0 0 612 19.56;" xml:space="preserve">
<style type="text/css">
	.st0{fill:#FFFFFF;}
</style>
<g>
	<path class="st0" d="M10.88,12.62c3.44,0,8.22,0.03,12.31-0.1c-0.05,1.17-0.05,2.35-0.05,3.52c0,1.17,0,2.35,0.05,3.52H0
		c0.03-1.88,0.13-5.61,0.13-9.78C0.13,5.48,0.1,1.9,0,0h11.03c-0.08,1.43-0.13,5.69-0.16,9.99V12.62z"/>
	<path class="st0" d="M42.93,20.29c-13.56,0-18.08-4.02-18.08-10.72c0-6.86,5.19-10.3,18.08-10.3c12.91,0,18.23,3.44,18.23,10.3
		C61.16,16.28,56.49,20.29,42.93,20.29z M50.15,9.57c0-2.84-1.88-4.28-7.2-4.28c-5.35,0-7.2,1.43-7.2,4.28
		c0,2.84,1.83,4.41,7.2,4.41C48.33,13.98,50.15,12.41,50.15,9.57z"/>
	<path class="st0" d="M73.28,13.3c0,1.17,1.3,1.67,5.95,1.67c5.03,0,5.74-0.42,5.74-1.17c0-0.89-0.47-1.38-7.51-1.59
		c-11.14-0.34-13.62-2.09-13.62-6.13c0-4.72,4.25-6.7,15.44-6.7c12.36,0,15.68,1.49,15.68,5.95c0,0.39,0,0.78-0.03,1.23
		c-1.36-0.13-3.7-0.18-5.71-0.18c-1.44,0-2.79,0.03-3.6,0.08V6.02c0-1.2-0.78-1.62-5.89-1.62c-4.72,0-5.48,0.39-5.48,1.09
		c0,0.83,0.52,1.25,8.19,1.59c10.2,0.42,13.07,1.85,13.07,6.39c0,4.75-3.63,6.7-15.7,6.7c-12.44,0-15.99-1.67-15.99-5.84
		c0-0.47,0.03-0.94,0.1-1.46c1.67,0.1,3.96,0.23,6.16,0.23c1.23,0,2.35,0,3.21-0.05V13.3z"/>
	<path class="st0" d="M134.32,19.56c-0.13-0.7-0.55-1.93-1.1-3.44c-2.09,0-4.09,0-5.66,0c-1.49,0-3.52,0-5.58,0
		c-0.6,1.46-1.07,2.69-1.28,3.44h-11.56c3.08-5.09,8.82-16.43,10.04-19.56h17.45c1.3,3.16,7.1,14.42,10.3,19.56H134.32z
		 M131.3,11.42c-0.68-1.56-1.44-3.18-2.14-4.59c-0.65-1.2-1.12-2.27-1.51-3.16c-0.39,0.86-0.86,1.93-1.49,3.18
		c-0.68,1.41-1.41,3-2.14,4.56c1.33,0.03,2.56,0.03,3.57,0.03C128.61,11.45,129.94,11.45,131.3,11.42z"/>
	<path class="st0" d="M182.36,0c-0.1,2.35-0.13,5.61-0.13,9.75c0,4.33,0,7.25,0.08,9.81h-11.32c-1.28-1.67-7.04-5.84-10.33-8.4
		c-0.94-0.97-1.83-1.9-2.58-2.84l-0.05,0.03c0.13,1.56,0.16,3.03,0.21,4.67c0.05,3.26,0.08,5.53,0.13,6.55h-9.13
		c0-2.66,0.08-5.61,0.08-9.78c0-4.15,0.03-7.07-0.08-9.78h12.1c0.73,1.12,7.3,6.31,10.2,8.55c0.73,0.73,1.49,1.41,2.09,2.19
		l0.05-0.03c-0.1-1.38-0.13-2.69-0.16-3.68c-0.03-3.03-0.1-5.79-0.21-7.04H182.36z"/>
	<path class="st0" d="M210.18,6.91c0-1.62-1.8-2.17-6.49-2.17c-5.06,0-7.1,1.41-7.1,5.01c0,3.37,1.96,4.98,7.54,4.98
		c3.86,0,5.69-0.7,6.36-2.3c-2.87,0.03-6.16,0.05-8.61,0.1c0.03-0.42,0.03-1.56,0.03-1.98c0-0.7,0-1.33-0.03-1.83
		c3.96,0.08,7.96,0.05,10.9,0.05c2.19,0,5.01,0.03,7.93-0.05c0.57,7.88-1.62,11.45-16.77,11.45c-11.82,0-18.26-2.84-18.26-10.59
		c0-7.93,6.44-10.22,18.05-10.22c11.84,0,17.01,1.88,16.98,7.23c0,0.21,0,0.44-0.03,0.65c-1.54-0.05-3.55-0.08-5.45-0.08
		c-1.93,0-3.73,0.03-5.06,0.08V6.91z"/>
	<path class="st0" d="M253.11,0c-0.03,0.63-0.05,1.62-0.05,2.48c0,0.89,0,1.9,0.05,2.48c-5.14-0.03-13.07-0.05-17.71-0.05v2.53
		c5.29,0,13.28,0,17.42-0.1c-0.05,1.07-0.08,3.21-0.05,4.36c-4.04-0.05-12.13-0.13-17.37-0.13v2.61c4.69,0,13.04-0.03,17.71-0.05
		c-0.05,0.68-0.05,1.77-0.05,2.79c0,0.89,0,1.96,0.05,2.66h-28.53c0.13-2.71,0.16-5.61,0.16-9.78c0-4.15-0.03-7.1-0.16-9.78H253.11z
		"/>
	<path class="st0" d="M268.26,12.62c3.44,0,8.22,0.03,12.31-0.1c-0.05,1.17-0.05,2.35-0.05,3.52c0,1.17,0,2.35,0.05,3.52h-23.19
		c0.03-1.88,0.13-5.61,0.13-9.78c0-4.3-0.03-7.88-0.13-9.78h11.03c-0.08,1.43-0.13,5.69-0.16,9.99V12.62z"/>
	<path class="st0" d="M311.58,0c-0.03,0.63-0.05,1.62-0.05,2.48c0,0.89,0,1.9,0.05,2.48c-5.14-0.03-13.07-0.05-17.71-0.05v2.53
		c5.29,0,13.28,0,17.42-0.1c-0.05,1.07-0.08,3.21-0.05,4.36c-4.04-0.05-12.13-0.13-17.37-0.13v2.61c4.69,0,13.04-0.03,17.71-0.05
		c-0.05,0.68-0.05,1.77-0.05,2.79c0,0.89,0,1.96,0.05,2.66h-28.53c0.13-2.71,0.16-5.61,0.16-9.78c0-4.15-0.03-7.1-0.16-9.78H311.58z
		"/>
	<path class="st0" d="M324.72,13.3c0,1.17,1.3,1.67,5.95,1.67c5.03,0,5.74-0.42,5.74-1.17c0-0.89-0.47-1.38-7.51-1.59
		c-11.14-0.34-13.62-2.09-13.62-6.13c0-4.72,4.25-6.7,15.44-6.7c12.36,0,15.68,1.49,15.68,5.95c0,0.39,0,0.78-0.03,1.23
		c-1.36-0.13-3.7-0.18-5.71-0.18c-1.44,0-2.79,0.03-3.6,0.08V6.02c0-1.2-0.78-1.62-5.89-1.62c-4.72,0-5.48,0.39-5.48,1.09
		c0,0.83,0.52,1.25,8.19,1.59c10.2,0.42,13.07,1.85,13.07,6.39c0,4.75-3.63,6.7-15.7,6.7c-12.44,0-15.99-1.67-15.99-5.84
		c0-0.47,0.03-0.94,0.1-1.46c1.67,0.1,3.96,0.23,6.16,0.23c1.23,0,2.35,0,3.21-0.05V13.3z"/>
	<path class="st0" d="M381.36,0c10.72,0,14.29,2.82,14.29,9.23c0,7.25-3.29,10.33-14.42,10.33h-18.28c0.08-2.77,0.08-5.61,0.08-9.75
		c0-4.15,0-7.12-0.08-9.81H381.36z M385.01,9.44c0-2.87-1.54-3.94-4.93-3.94c-2.32,0-4.49,0.03-6.6,0.1
		c-0.03,1.41-0.05,2.87-0.05,4.25c0,1.46,0,2.63,0,3.65c2.32,0.21,4.15,0.13,6.65,0.13C383.31,13.64,385.01,12.41,385.01,9.44z"/>
	<path class="st0" d="M416.18,20.29c-13.56,0-18.08-4.02-18.08-10.72c0-6.86,5.19-10.3,18.08-10.3c12.91,0,18.23,3.44,18.23,10.3
		C434.41,16.28,429.74,20.29,416.18,20.29z M423.4,9.57c0-2.84-1.88-4.28-7.2-4.28c-5.35,0-7.2,1.43-7.2,4.28
		c0,2.84,1.83,4.41,7.2,4.41S423.4,12.41,423.4,9.57z"/>
	<path class="st0" d="M456.09,0c10.72,0,14.29,2.82,14.29,9.23c0,7.25-3.29,10.33-14.42,10.33h-18.28c0.08-2.77,0.08-5.61,0.08-9.75
		c0-4.15,0-7.12-0.08-9.81H456.09z M459.74,9.44c0-2.87-1.54-3.94-4.93-3.94c-2.32,0-4.49,0.03-6.6,0.1
		c-0.03,1.41-0.05,2.87-0.05,4.25c0,1.46,0,2.63,0,3.65c2.32,0.21,4.15,0.13,6.65,0.13C458.04,13.64,459.74,12.41,459.74,9.44z"/>
	<path class="st0" d="M497.33,6.91c0-1.62-1.8-2.17-6.49-2.17c-5.06,0-7.1,1.41-7.1,5.01c0,3.37,1.96,4.98,7.54,4.98
		c3.86,0,5.69-0.7,6.36-2.3c-2.87,0.03-6.16,0.05-8.61,0.1c0.03-0.42,0.03-1.56,0.03-1.98c0-0.7,0-1.33-0.03-1.83
		c3.96,0.08,7.96,0.05,10.9,0.05c2.19,0,5.01,0.03,7.93-0.05c0.57,7.88-1.62,11.45-16.77,11.45c-11.82,0-18.26-2.84-18.26-10.59
		c0-7.93,6.44-10.22,18.05-10.22c11.84,0,17.01,1.88,16.98,7.23c0,0.21,0,0.44-0.03,0.65c-1.54-0.05-3.55-0.08-5.45-0.08
		c-1.93,0-3.73,0.03-5.06,0.08V6.91z"/>
	<path class="st0" d="M540.26,0c-0.03,0.63-0.05,1.62-0.05,2.48c0,0.89,0,1.9,0.05,2.48c-5.14-0.03-13.07-0.05-17.71-0.05v2.53
		c5.29,0,13.28,0,17.42-0.1c-0.05,1.07-0.08,3.21-0.05,4.36c-4.04-0.05-12.13-0.13-17.37-0.13v2.61c4.69,0,13.04-0.03,17.71-0.05
		c-0.05,0.68-0.05,1.77-0.05,2.79c0,0.89,0,1.96,0.05,2.66h-28.53c0.13-2.71,0.16-5.61,0.16-9.78c0-4.15-0.03-7.1-0.16-9.78H540.26z
		"/>
	<path class="st0" d="M569.42,11.32c4.62,0.44,6.68,1.33,7.38,4.43c0.36,1.49,0.7,3,1.04,3.81h-8.87c-1.72,0-2.16-0.36-2.66-2.79
		c-0.44-2.4-1.17-2.92-4.8-2.92h-6.57c0.08,2.35,0.18,4.36,0.39,5.71h-10.77c0.08-2.84,0.16-5.58,0.16-9.78
		c0-4.15-0.05-6.96-0.16-9.78h21.07c7.43,0,11.11,1.54,11.11,5.69c0,3.39-2.11,4.93-7.33,5.45V11.32z M566.58,7.02
		c0-1.43-1.15-1.93-4.3-1.93c-1.46,0-5.27,0.03-7.43,0.1c0,1.28,0,2.58,0.03,3.83c1.62,0.05,4.41,0.05,7.38,0.05
		C565.43,9.08,566.58,8.42,566.58,7.02z"/>
	<path class="st0" d="M589.78,13.3c0,1.17,1.3,1.67,5.95,1.67c5.03,0,5.74-0.42,5.74-1.17c0-0.89-0.47-1.38-7.51-1.59
		c-11.14-0.34-13.62-2.09-13.62-6.13c0-4.72,4.25-6.7,15.44-6.7c12.36,0,15.68,1.49,15.68,5.95c0,0.39,0,0.78-0.03,1.23
		c-1.36-0.13-3.7-0.18-5.71-0.18c-1.44,0-2.79,0.03-3.6,0.08V6.02c0-1.2-0.78-1.62-5.89-1.62c-4.72,0-5.48,0.39-5.48,1.09
		c0,0.83,0.52,1.25,8.19,1.59C609.13,7.51,612,8.95,612,13.48c0,4.75-3.63,6.7-15.7,6.7c-12.44,0-15.99-1.67-15.99-5.84
		c0-0.47,0.03-0.94,0.1-1.46c1.67,0.1,3.96,0.23,6.16,0.23c1.23,0,2.35,0,3.21-0.05V13.3z"/>
</g>
</svg>
